<?xml version="1.0" encoding="utf-8"?>
<!-- Generator: Adobe Illustrator 25.2.0, SVG Export Plug-In . SVG Version: 6.00 Build 0)  -->
<svg version="1.1" id="Camada_1" xmlns="http://www.w3.org/2000/svg" xmlns:xlink="http://www.w3.org/1999/xlink" x="0px" y="0px"
	 viewBox="0 0 500 500" style="enable-background:new 0 0 500 500;" xml:space="preserve">
<path id="home" d="M459.69,220.95l-0.18-0.18L279.06,39.46c-7.57-7.7-17.92-12.03-28.72-12.02c-10.85-0.01-21.25,4.32-28.89,12.02
	L40.11,220.77l-0.18,0.18C24.01,236.96,28,252.89,28,270.31v154.12c0.09,26.43,21.54,47.82,47.97,47.82h347.85
	c26.41-0.1,47.75-21.56,47.71-47.97V270.31C471.53,252.89,475.61,236.96,459.69,220.95z M445.59,273.88v150.55
	c0.01,12.04-9.73,21.82-21.77,21.86H75.97c-12.05-0.05-21.8-9.81-21.83-21.86V273.79c0-13.67-1.48-28.67,4.41-34.47l0,0L239.89,57.9
	c2.76-2.81,6.52-4.39,10.45-4.41c3.91,0.02,7.64,1.61,10.37,4.41l180.54,181.4l0,0c5.82,5.84,4.32,20.82,4.32,34.49L445.59,273.88z"
	/>
</svg>
